<svg width="188" height="33" viewBox="0 0 188 33" fill="none" xmlns="http://www.w3.org/2000/svg">
<path d="M134.298 14.1241C132.941 14.1241 131.801 13.826 130.879 13.2296C129.957 12.627 129.263 11.7952 128.796 10.7343C128.328 9.67347 128.095 8.44937 128.095 7.06207C128.095 5.67477 128.328 4.45067 128.796 3.38979C129.263 2.32891 129.957 1.5003 130.879 0.903944C131.801 0.301315 132.941 0 134.298 0C135.656 0 136.792 0.301315 137.708 0.903944C138.629 1.5003 139.324 2.32891 139.791 3.38979C140.258 4.45067 140.492 5.67477 140.492 7.06207C140.492 8.44937 140.258 9.67347 139.791 10.7343C139.324 11.7952 138.629 12.627 137.708 13.2296C136.792 13.826 135.656 14.1241 134.298 14.1241ZM134.298 13.0601C135.416 13.0664 136.347 12.8153 137.092 12.3068C137.837 11.7921 138.396 11.0827 138.768 10.1788C139.141 9.27485 139.327 8.23594 139.327 7.06207C139.327 5.8882 139.141 4.84929 138.768 3.94534C138.396 3.0414 137.837 2.33519 137.092 1.82672C136.347 1.31825 135.416 1.06402 134.298 1.06402C133.181 1.05774 132.249 1.30884 131.504 1.81731C130.765 2.32577 130.21 3.03512 129.837 3.94534C129.465 4.84929 129.272 5.8882 129.26 7.06207C129.247 8.23594 129.427 9.27485 129.799 10.1788C130.178 11.0765 130.743 11.7827 131.495 12.2974C132.246 12.8059 133.181 13.0601 134.298 13.0601Z" fill="#141517"/>
<path d="M147.46 14.1241C146.102 14.1241 144.963 13.826 144.041 13.2296C143.119 12.627 142.424 11.7952 141.957 10.7343C141.49 9.67347 141.256 8.44937 141.256 7.06207C141.256 5.67477 141.49 4.45067 141.957 3.38979C142.424 2.32891 143.119 1.5003 144.041 0.903944C144.963 0.301315 146.102 0 147.46 0C149.044 0 150.329 0.408031 151.314 1.22409C152.306 2.04015 152.978 3.13242 153.332 4.50089L152.205 4.77396C151.914 3.63775 151.371 2.73694 150.576 2.07154C149.786 1.39986 148.748 1.06402 147.46 1.06402C146.342 1.06402 145.411 1.31825 144.666 1.82672C143.927 2.33519 143.368 3.0414 142.989 3.94534C142.617 4.84929 142.427 5.8882 142.421 7.06207C142.409 8.23594 142.588 9.27485 142.961 10.1788C143.34 11.0765 143.905 11.7827 144.656 12.2974C145.408 12.8059 146.342 13.0601 147.46 13.0601C148.748 13.0601 149.786 12.7243 150.576 12.0526C151.371 11.3809 151.914 10.4801 152.205 9.35018L153.332 9.62325C152.978 10.9917 152.306 12.084 151.314 12.9C150.329 13.7161 149.044 14.1241 147.46 14.1241Z" fill="#141517"/>
<path d="M155.027 13.8417V0.282483H163.457V1.33708H156.117V13.8417H155.027Z" fill="#141517"/>
<path d="M170.046 14.1241C168.689 14.1241 167.549 13.826 166.627 13.2296C165.705 12.627 165.011 11.7952 164.544 10.7343C164.076 9.67347 163.843 8.44937 163.843 7.06207C163.843 5.67477 164.076 4.45067 164.544 3.38979C165.011 2.32891 165.705 1.5003 166.627 0.903944C167.549 0.301315 168.689 0 170.046 0C171.404 0 172.54 0.301315 173.456 0.903944C174.378 1.5003 175.072 2.32891 175.539 3.38979C176.007 4.45067 176.24 5.67477 176.24 7.06207C176.24 8.44937 176.007 9.67347 175.539 10.7343C175.072 11.7952 174.378 12.627 173.456 13.2296C172.54 13.826 171.404 14.1241 170.046 14.1241ZM170.046 13.0601C171.164 13.0664 172.095 12.8153 172.84 12.3068C173.585 11.7921 174.144 11.0827 174.516 10.1788C174.889 9.27485 175.075 8.23594 175.075 7.06207C175.075 5.8882 174.889 4.84929 174.516 3.94534C174.144 3.0414 173.585 2.33519 172.84 1.82672C172.095 1.31825 171.164 1.06402 170.046 1.06402C168.929 1.05774 167.997 1.30884 167.252 1.81731C166.514 2.32577 165.958 3.03512 165.585 3.94534C165.213 4.84929 165.02 5.8882 165.008 7.06207C164.995 8.23594 165.175 9.27485 165.548 10.1788C165.926 11.0765 166.491 11.7827 167.243 12.2974C167.994 12.8059 168.929 13.0601 170.046 13.0601Z" fill="#141517"/>
<path d="M177.762 13.8417V0.282483H188V13.8417H186.911V1.33708H178.851V13.8417H177.762Z" fill="#141517"/>
<path d="M131.703 31.7175V22.5839H128V21.5481H136.495V22.5839H132.792V31.7175H131.703Z" fill="#141517"/>
<path d="M140.437 32C139.648 32 138.991 31.8619 138.467 31.5857C137.949 31.3095 137.561 30.9454 137.302 30.4934C137.043 30.0352 136.914 29.5393 136.914 29.0057C136.914 28.4282 137.034 27.9448 137.274 27.5556C137.52 27.1664 137.845 26.8525 138.249 26.614C138.66 26.3755 139.111 26.1966 139.603 26.0773C140.165 25.9517 140.772 25.845 141.422 25.7571C142.072 25.663 142.691 25.5814 143.278 25.5123C143.872 25.4433 144.355 25.3836 144.727 25.3334L144.329 25.5688C144.355 24.4703 144.146 23.6542 143.704 23.1206C143.269 22.5808 142.498 22.3108 141.393 22.3108C140.617 22.3108 139.976 22.4866 139.471 22.8381C138.972 23.1834 138.622 23.7201 138.42 24.4483L137.302 24.1376C137.536 23.2148 138.006 22.5054 138.713 22.0095C139.42 21.5136 140.326 21.2657 141.431 21.2657C142.372 21.2657 143.161 21.4477 143.799 21.8118C144.443 22.1759 144.891 22.6875 145.144 23.3466C145.251 23.6165 145.324 23.9335 145.362 24.2976C145.4 24.6554 145.419 25.0164 145.419 25.3805V31.7175H144.424V29.0434L144.793 29.1375C144.484 30.054 143.944 30.7602 143.174 31.2561C142.404 31.752 141.491 32 140.437 32ZM140.494 31.0019C141.188 31.0019 141.798 30.8795 142.322 30.6347C142.846 30.3836 143.269 30.0352 143.591 29.5895C143.919 29.1375 144.127 28.6071 144.216 27.9982C144.279 27.6592 144.314 27.292 144.32 26.8965C144.326 26.501 144.329 26.2091 144.329 26.0208L144.803 26.3221C144.393 26.3723 143.9 26.4257 143.325 26.4822C142.757 26.5387 142.176 26.6077 141.583 26.6893C140.989 26.7709 140.453 26.8745 139.973 27.0001C139.676 27.0817 139.376 27.2009 139.073 27.3579C138.776 27.5085 138.527 27.7188 138.325 27.9887C138.129 28.2587 138.031 28.6008 138.031 29.0151C138.031 29.3227 138.107 29.6303 138.259 29.9379C138.416 30.2455 138.675 30.4997 139.035 30.7006C139.395 30.9015 139.881 31.0019 140.494 31.0019Z" fill="#141517"/>
<path d="M147.499 31.7175V21.5481H148.598V26.4445L153.437 21.5481H154.962L149.895 26.6328L155.682 31.7175H153.986L148.598 26.8212V31.7175H147.499Z" fill="#141517"/>
<path d="M160.25 32C159.227 32 158.365 31.774 157.664 31.322C156.963 30.8638 156.43 30.2329 156.064 29.4294C155.704 28.6196 155.517 27.6874 155.505 26.6328C155.517 25.5594 155.707 24.6209 156.073 23.8174C156.445 23.0076 156.982 22.3799 157.683 21.9342C158.384 21.4885 159.243 21.2657 160.259 21.2657C161.25 21.2657 162.122 21.5042 162.873 21.9813C163.631 22.4521 164.155 23.1018 164.445 23.9304L163.384 24.3165C163.126 23.6825 162.718 23.1928 162.163 22.8476C161.607 22.496 160.969 22.3203 160.25 22.3203C159.441 22.3203 158.775 22.5054 158.251 22.8758C157.727 23.2399 157.336 23.7452 157.077 24.3918C156.818 25.0384 156.682 25.7854 156.67 26.6328C156.689 27.9323 156.995 28.9774 157.588 29.7684C158.188 30.5531 159.075 30.9454 160.25 30.9454C160.976 30.9454 161.604 30.779 162.134 30.4463C162.671 30.1136 163.081 29.6303 163.366 28.9963L164.445 29.3635C164.047 30.2235 163.492 30.8795 162.778 31.3315C162.065 31.7772 161.222 32 160.25 32Z" fill="#141517"/>
<path d="M173.933 21.5481V31.7175H172.862V23.3654L167.009 31.7175H166.053V21.5481H167.123V29.8625L172.976 21.5481H173.933Z" fill="#141517"/>
<path d="M118.62 2.53246V0.534195H117.784V0.0189209H120.028V0.534195H119.192V2.53246H118.62ZM120.499 2.53246V0.0189209H120.958L121.825 1.37623L122.692 0.0189209H123.151V2.53246H122.604V1.08717L121.982 2.0863H121.668L121.045 1.08717V2.53246H120.499Z" fill="#141517"/>
<path d="M13.9815 32.4686C10.8773 32.4686 8.29466 31.7774 6.221 30.3886C4.14733 28.9999 2.59522 27.0896 1.55839 24.6515C0.521558 22.2134 0 19.4045 0 16.2311C0 13.0578 0.521558 10.2489 1.55839 7.81081C2.59522 5.37268 4.15361 3.46239 6.221 2.07367C8.28838 0.691221 10.8773 0 13.9815 0C17.6136 0 20.5481 0.948859 22.7663 2.84658C24.9845 4.7443 26.4864 7.2704 27.2656 10.4312L25.3616 10.8648C24.6703 8.11243 23.3759 5.91309 21.4782 4.27301C19.5804 2.63293 17.0795 1.81603 13.9815 1.81603C11.3109 1.81603 9.09271 2.43184 7.32695 3.65719C5.56119 4.88254 4.22902 6.58546 3.33043 8.75338C2.43184 10.9213 1.97312 13.416 1.94799 16.2311C1.91657 19.0463 2.35015 21.5347 3.24874 23.6963C4.14733 25.858 5.49207 27.5609 7.28297 28.7925C9.08014 30.0242 11.3109 30.64 13.9815 30.64C17.0857 30.64 19.5804 29.8168 21.4782 28.1767C23.3759 26.5304 24.6703 24.3373 25.3616 21.5975L27.2656 22.0311C26.4864 25.1919 24.9845 27.718 22.7663 29.6157C20.5419 31.5134 17.6136 32.4623 13.9815 32.4623V32.4686Z" fill="#141517"/>
<path d="M42.1708 32.4686C39.0666 32.4686 36.4839 31.7774 34.4103 30.3886C32.3366 28.9999 30.7845 27.0896 29.7477 24.6515C28.7108 22.2134 28.1893 19.4045 28.1893 16.2311C28.1893 13.0578 28.7108 10.2489 29.7477 7.81081C30.7845 5.37268 32.3429 3.46239 34.4103 2.07367C36.4777 0.691221 39.0666 0 42.1708 0C45.275 0 47.8577 0.691221 49.9313 2.07367C51.9987 3.46239 53.5571 5.37268 54.594 7.81081C55.6308 10.2489 56.1523 13.0578 56.1523 16.2311C56.1523 19.4045 55.6308 22.2134 54.594 24.6515C53.5571 27.0896 51.9987 28.9999 49.9313 30.3886C47.864 31.7774 45.275 32.4686 42.1708 32.4686ZM42.1708 30.6463C44.8414 30.6463 47.0659 30.0305 48.8442 28.7988C50.6288 27.5672 51.9673 25.8643 52.8596 23.7026C53.7519 21.541 54.2044 19.0526 54.2044 16.2374C54.2044 13.4223 53.7582 10.9339 52.8596 8.75967C51.961 6.58546 50.6288 4.88882 48.8442 3.66348C47.0659 2.43813 44.8352 1.82231 42.1708 1.82231C39.5065 1.82231 37.282 2.43813 35.5162 3.66348C33.7505 4.88882 32.4183 6.59174 31.5197 8.75967C30.6211 10.9276 30.1624 13.4223 30.1373 16.2374C30.1058 19.0526 30.5394 21.541 31.438 23.7026C32.3303 25.8643 33.6813 27.5672 35.4722 28.7988C37.2694 30.0305 39.5002 30.6463 42.1708 30.6463Z" fill="#141517"/>
<path d="M58.3706 32.4685V0.00622559H67.9849C68.3808 0.00622559 69.0091 0.01251 69.8763 0.0313615C70.7435 0.0439292 71.5667 0.113051 72.3584 0.232444C74.7714 0.578055 76.776 1.4955 78.3595 2.98477C79.9493 4.47403 81.1307 6.36547 81.9036 8.65279C82.6765 10.9464 83.0661 13.4725 83.0661 16.2374C83.0661 19.0023 82.6765 21.5535 81.9036 23.8471C81.1307 26.1407 79.9493 28.0259 78.3595 29.5026C76.7697 30.9855 74.7714 31.8967 72.3584 32.2423C71.5855 32.3491 70.7498 32.412 69.8637 32.4371C68.9777 32.4622 68.3493 32.4685 67.9849 32.4685H58.3706ZM60.4191 30.5771H67.9849C68.7138 30.5771 69.4427 30.552 70.1842 30.508C70.9257 30.464 71.5415 30.3949 72.038 30.3069C74.1933 29.9487 75.9276 29.1255 77.241 27.8373C78.5543 26.5492 79.5094 24.9154 80.1127 22.9234C80.7097 20.9314 81.0113 18.7069 81.0113 16.2374C81.0113 13.7678 80.7097 11.5434 80.1127 9.55137C79.5157 7.5594 78.5543 5.9256 77.241 4.63741C75.9276 3.35551 74.1933 2.53233 72.038 2.16787C71.5352 2.07989 70.9069 2.01077 70.1465 1.96678C69.3862 1.9228 68.6635 1.89766 67.9849 1.89766H60.4191V30.5708V30.5771Z" fill="#141517"/>
<path d="M114.184 0.0189209C107.931 10.8334 101.685 21.6416 95.4326 32.4561C93.0196 32.4561 90.6004 32.4624 88.1874 32.4687C94.4335 21.6542 100.68 10.8334 106.926 0.0189209H114.184Z" fill="#7D51FE"/>
<path d="M87.5841 0.0252633C84.5615 5.26598 81.539 10.5067 78.5102 15.7411C76.1035 15.7411 73.6905 15.7348 71.2838 15.7286C74.3 10.4878 77.3163 5.25341 80.3325 0.0126953C82.7518 0.0126953 85.1648 0.0126953 87.5841 0.0126953V0.0252633Z" fill="#141517"/>
<path d="M78.5103 15.7473C83.7447 15.741 88.9791 15.7285 94.2136 15.7222C95.4201 13.636 96.6266 11.5497 97.8331 9.46349C92.6049 9.46349 87.3767 9.45093 82.1486 9.45093L78.5103 15.7473Z" fill="#141517"/>
<path d="M68.8395 32.4623C74.0802 32.4623 79.3209 32.4623 84.5616 32.4623C85.7681 30.3761 86.9746 28.2836 88.1811 26.1973L72.4653 26.1785C71.2588 28.271 70.0523 30.3698 68.8458 32.4623H68.8395Z" fill="#141517"/>
<path d="M76.7382 18.8767C74.1116 23.4074 71.4912 27.938 68.8646 32.4686C66.4516 32.4686 64.0449 32.4686 61.6319 32.4686C64.2397 27.938 66.8538 23.4074 69.4616 18.8767H76.732H76.7382Z" fill="#141517"/>
<path d="M103.306 6.30276H87.5904C88.7969 4.21024 90.0097 2.11144 91.2162 0.0189209H106.926C105.719 2.11144 104.513 4.21024 103.306 6.30276Z" fill="#7D51FE"/>
</svg>
